<svg width="74" height="73" viewBox="0 0 74 73" fill="none" xmlns="http://www.w3.org/2000/svg">
<path d="M1.91074 64.7212C5.45197 64.7212 6.96964 66.1951 8.74025 67.4234C10.2579 68.6516 11.2697 69.6342 13.7991 69.6342C16.3286 69.6342 17.5933 68.6516 18.858 67.4234C20.3757 66.1951 22.1463 64.7212 25.6876 64.7212C29.2288 64.7212 30.7464 66.1951 32.5171 67.4234C34.0347 68.6516 35.0465 69.6342 37.576 69.6342C40.1054 69.6342 41.3701 68.6516 42.6348 67.4234C44.1525 66.1951 45.9231 64.7212 49.4644 64.7212C53.0056 64.7212 54.5233 66.1951 56.2939 67.4234C57.8115 68.6516 58.8233 69.6342 61.3528 69.6342C63.8822 69.6342 65.1469 68.6516 66.4117 67.4234C67.6764 66.1951 69.194 64.7212 72.7353 64.7212C73.4941 64.7212 74 65.2125 74 65.9495C74 66.6864 73.4941 67.1777 72.7353 67.1777C70.2058 67.1777 68.9411 68.1603 67.6764 69.3886C66.1587 70.6169 64.3881 72.0908 60.8469 72.0908C57.3056 72.0908 55.788 70.6169 54.0174 69.3886C52.4997 68.1603 51.4879 67.1777 48.9585 67.1777C46.429 67.1777 45.1643 68.1603 43.8996 69.3886C42.3819 70.6169 40.6113 72.0908 37.0701 72.0908C33.5288 72.0908 32.0112 70.6169 30.2406 69.3886C28.7229 68.1603 27.7111 67.1777 25.1817 67.1777C22.6522 67.1777 21.3875 68.1603 20.1228 69.3886C18.6051 70.6169 16.8345 72.0908 13.2933 72.0908C9.75203 72.0908 8.23436 70.6169 6.46374 69.3886C4.94607 68.1603 3.9343 67.1777 1.40485 67.1777C0.646014 67.1777 0.140126 66.6864 0.140126 65.9495C0.140126 65.2125 1.15191 64.7212 1.91074 64.7212ZM55.0291 8.22126H44.9114C44.1525 8.22126 43.6466 7.72995 43.6466 6.993V2.07996C43.6466 1.343 44.1525 0.8517 44.9114 0.8517H55.0291C55.788 0.8517 56.2939 1.343 56.2939 2.07996V6.993C56.2939 7.72995 55.788 8.22126 55.0291 8.22126ZM39.8525 8.22126H19.6169C18.858 8.22126 18.3521 7.72995 18.3521 6.993V2.07996C18.3521 1.343 18.858 0.8517 19.6169 0.8517H39.8525C40.6113 0.8517 41.1172 1.343 41.1172 2.07996V6.993C41.1172 7.72995 40.6113 8.22126 39.8525 8.22126ZM39.8525 22.9604H47.4408C48.1996 22.9604 48.7055 23.4517 48.7055 24.1886V29.8386C48.7055 30.3299 48.4526 30.5756 48.1996 30.8212C47.9467 31.0669 47.6937 31.0669 47.4408 31.0669H47.1879L39.5995 29.3473C39.0936 29.1017 38.5877 28.6104 38.5877 28.1191V24.1886C38.5877 23.4517 39.0936 22.9604 39.8525 22.9604ZM38.5877 11.906C38.5877 11.1691 39.0936 10.6778 39.8525 10.6778H47.4408C48.1996 10.6778 48.7055 11.1691 48.7055 11.906V19.2756C48.7055 20.0126 48.1996 20.5039 47.4408 20.5039H39.8525C39.0936 20.5039 38.5877 20.0126 38.5877 19.2756V11.906ZM14.558 22.9604H24.6758C25.4346 22.9604 25.9405 23.4517 25.9405 24.1886V30.5756C25.9405 31.0669 25.4346 31.5582 24.9287 31.8038L14.8109 34.0147H14.558C14.305 34.0147 14.0521 34.0147 13.7991 33.7691C13.5462 33.5234 13.2933 33.2778 13.2933 32.7865V24.1886C13.2933 23.4517 13.7991 22.9604 14.558 22.9604ZM28.4699 11.906C28.4699 11.1691 28.9758 10.6778 29.7347 10.6778H34.7936C35.5524 10.6778 36.0583 11.1691 36.0583 11.906V19.2756C36.0583 20.0126 35.5524 20.5039 34.7936 20.5039H29.7347C28.9758 20.5039 28.4699 20.0126 28.4699 19.2756V11.906ZM29.7347 22.9604H34.7936C35.5524 22.9604 36.0583 23.4517 36.0583 24.1886V28.3647C36.0583 28.856 35.5524 29.3473 35.0465 29.593L29.9876 30.8212H29.7347C29.4817 30.8212 29.2288 30.8212 28.9758 30.5756C28.7229 30.3299 28.4699 30.0843 28.4699 29.593V24.1886C28.4699 23.4517 28.9758 22.9604 29.7347 22.9604ZM25.9405 11.906V19.2756C25.9405 20.0126 25.4346 20.5039 24.6758 20.5039H14.558C13.7991 20.5039 13.2933 20.0126 13.2933 19.2756V11.906C13.2933 11.1691 13.7991 10.6778 14.558 10.6778H24.6758C25.4346 10.6778 25.9405 11.1691 25.9405 11.906ZM60.088 34.0147H59.8351L52.2468 32.2951C51.7409 32.0495 51.235 31.5582 51.235 31.0669V24.1886C51.235 23.4517 51.7409 22.9604 52.4997 22.9604H60.088C60.8469 22.9604 61.3528 23.4517 61.3528 24.1886V32.7865C61.3528 33.2778 61.0998 33.5234 60.8469 33.7691C60.5939 33.7691 60.341 34.0147 60.088 34.0147ZM60.088 20.5039H52.4997C51.7409 20.5039 51.235 20.0126 51.235 19.2756V11.906C51.235 11.1691 51.7409 10.6778 52.4997 10.6778H60.088C60.8469 10.6778 61.3528 11.1691 61.3528 11.906V19.2756C61.3528 20.0126 60.8469 20.5039 60.088 20.5039Z" fill="white"/>
<path d="M72.7353 59.8081C70.2058 59.8081 68.9411 60.7907 67.6764 62.0189C66.1587 63.2472 64.3881 64.7211 60.8469 64.7211C57.3056 64.7211 55.788 63.2472 54.0174 62.0189L53.5115 61.5276C53.2585 61.282 53.0056 61.0363 52.7526 61.0363C52.4997 61.0363 52.4997 60.7907 52.2468 60.7907C51.9938 60.7907 51.9938 60.545 51.7409 60.545C51.4879 60.545 51.235 60.2994 50.982 60.2994C50.7291 60.2994 50.7291 60.2994 50.4761 60.0537C49.9703 60.0537 49.4644 59.8081 48.9585 59.8081C46.429 59.8081 45.1643 60.7907 43.8996 62.0189C42.3819 63.2472 40.6113 64.7211 37.0701 64.7211C34.0347 64.7211 32.2641 63.4928 30.9994 62.5102C30.7465 62.2646 30.4935 62.2646 30.4935 62.0189C28.9758 60.7907 27.9641 59.8081 25.4346 59.8081C24.9287 59.8081 24.4228 59.8081 23.9169 60.0537C23.664 60.0537 23.664 60.0537 23.4111 60.2994C23.1581 60.2994 22.9052 60.545 22.6522 60.545C22.3993 60.545 22.3993 60.7907 22.1463 60.7907C21.8934 60.7907 21.8934 61.0363 21.6404 61.0363C21.3875 61.282 21.1346 61.282 20.8816 61.5276L20.3757 62.0189C18.858 63.2472 17.0874 64.7211 13.5462 64.7211C10.005 64.7211 8.48732 63.2472 6.71671 62.0189C5.19904 60.7907 4.18725 59.8081 1.65781 59.8081C0.898973 59.8081 0.393085 59.3167 0.393085 58.5798C0.393085 57.8428 0.898973 57.3515 1.65781 57.3515C5.19903 57.3515 6.7167 58.8254 8.48732 60.0537C10.005 61.282 11.0168 62.2646 13.5462 62.2646C15.8227 62.2646 17.0874 61.282 18.3522 60.2994L8.23437 39.4189C7.98143 39.1733 7.98143 38.682 8.23437 38.4363L8.99321 37.6994L36.8171 31.5581H37.323L65.1469 37.6994C65.3999 37.6994 65.9058 37.945 65.9058 38.4363C66.1587 38.682 66.1587 39.1733 65.9058 39.4189L55.788 60.2994C57.0527 61.282 58.3174 62.2646 60.5939 62.2646C63.1234 62.2646 64.3881 61.282 65.6528 60.0537C67.6764 58.8254 69.447 57.3515 72.7353 57.3515C73.4941 57.3515 74 57.8428 74 58.5798C74 59.3167 73.4941 59.8081 72.7353 59.8081ZM37.323 37.6994C36.5642 37.6994 36.0583 38.1907 36.0583 38.9276V62.0189C36.5642 62.0189 36.8171 62.2646 37.323 62.2646C37.8289 62.2646 38.0819 62.2646 38.5877 62.0189V38.9276C38.5877 38.1907 38.0819 37.6994 37.323 37.6994Z" fill="white"/>
</svg>
