<svg width="75" height="74" viewBox="0 0 75 74" fill="none" xmlns="http://www.w3.org/2000/svg">
<path fill-rule="evenodd" clip-rule="evenodd" d="M59.744 45.6788C61.9692 44.7751 61.148 45.1371 62.3412 43.2413L64.5099 43.2144C64.7892 47.6089 61.3235 46.3938 59.8424 49.3023C59.317 50.3341 59.1639 51.1625 58.208 51.8813C57.8748 51.0856 57.5105 50.2786 57.049 49.3742C55.5687 46.4733 52.0425 47.3414 52.4219 43.2083L54.5421 43.2001C55.372 45.0416 55.1854 44.9889 57.1535 45.6059C57.3643 42.5057 57.4745 42.8124 56.3403 40.6448C55.4238 38.8932 56.5363 37.0879 58.3325 37.0325C59.9765 36.9818 61.4524 38.6499 60.6979 40.3906C60.0624 41.8568 59.2795 40.3176 59.744 45.6788ZM49.9277 38.2398L32.4608 38.2169C30.6095 38.2247 30.591 38.1261 29.5998 39.1559C26.5635 42.3105 26.6605 40.7464 27.2595 43.293C33.0221 45.0907 38.8903 44.3994 42.7087 50.3106C45.0978 54.009 43.826 55.6234 45.9018 55.6234H74.4193L74.5178 53.1573L60.8198 53.1515C64.0134 51.5874 67.1497 51.3391 69.9715 46.6759C72.5766 42.3709 72.0598 38.7989 72.0598 33.2858L53.9721 33.3484C53.3886 34.325 50.9608 37.8722 49.9277 38.2398Z" fill="white"/>
<path fill-rule="evenodd" clip-rule="evenodd" d="M16.7703 34.969L18.3672 34.1146C18.4711 34.2011 18.5807 34.1944 18.6149 34.3102C18.6575 34.4546 18.9711 34.5635 19.0416 34.6191C19.5941 35.0558 19.0272 34.6879 19.6117 35.1061C20.2174 35.5394 20.4844 35.7239 21.4034 35.6927C22.9879 35.6389 23.0998 34.7794 24.0942 34.0965L26.0146 35.0159C24.9413 38.4628 20.616 38.9577 18.3791 37.3333C18.1236 37.1477 17.5138 36.5828 17.3406 36.3543C16.4463 35.1737 17.0765 35.7423 16.7703 34.969ZM27.3577 26.0463L27.2702 28.0541C26.1906 28.274 26.504 28.4367 25.4141 27.8926C24.4608 26.1446 25.8288 25.751 27.3577 26.0463ZM15.7025 26.1512C17.2204 25.0348 18.2161 27.2325 17.138 27.9901C15.7818 28.9434 14.3162 27.1707 15.7025 26.1512ZM10.2104 25.8708C10.1799 29.8674 11.3611 33.3166 13.2382 35.7648C21.9113 47.0775 32.8096 36.4461 32.4347 25.5605C26.1978 24.4268 24.0345 21.2257 21.4102 19.2427C19.2752 20.4684 18.174 22.66 13.6595 24.4904C12.984 24.7644 12.5555 24.8898 11.9224 25.094L10.9176 25.4558C10.8412 25.4919 10.7474 25.5472 10.6794 25.5824C10.6106 25.6179 10.5005 25.6925 10.4452 25.723C10.3891 25.754 10.2843 25.8153 10.2104 25.8708Z" fill="white"/>
<path fill-rule="evenodd" clip-rule="evenodd" d="M58.4339 22.1316L63.3821 22.0837L63.4187 25.8763L63.1977 27.0603L58.4679 26.992L58.4339 22.1316ZM48.5513 22.0837L52.2797 22.0535L53.5119 22.2348L53.3924 27.0339L48.6858 27.0598L48.5513 25.8709V22.0837ZM44.8427 35.7421L49.3576 35.6975C51.0338 32.3231 52.5385 30.7634 55.6217 30.7618C59.3867 30.7599 63.1551 30.7777 66.9213 30.7777C67.3654 28.1638 67.0998 21.3962 67.0907 18.3586H44.8114L44.8427 35.7421Z" fill="white"/>
<path fill-rule="evenodd" clip-rule="evenodd" d="M5.24336 58.1183H7.70998L7.75436 65.544L17.5908 65.4942C17.7453 58.7094 18.6672 60.6815 10.0986 55.7691C8.2899 54.7321 3.88663 51.927 2.28672 51.4752C0.896897 52.9452 0.284647 55.3555 0.284647 57.8831C0.284647 65.9657 -1.20432 72.9935 7.69857 73.0357L7.6547 68.0477H5.25097L5.24336 58.1183Z" fill="white"/>
<path fill-rule="evenodd" clip-rule="evenodd" d="M34.9141 58.1616L37.4156 58.2487V70.5398H42.3556V58.2199C42.3556 54.2826 41.6217 54.0889 40.6164 51.3686C38.5657 51.9926 34.6243 54.6175 32.4534 55.8382C31.2022 56.5416 25.2553 59.5777 25.05 60.5787C24.389 63.7986 26.3615 63.0344 27.4291 65.5542C29.57 65.6096 31.0298 65.9337 31.8552 67.2702C33.6489 70.1747 30.4475 70.5398 34.9288 70.5398L34.9141 58.1616Z" fill="white"/>
<path fill-rule="evenodd" clip-rule="evenodd" d="M2.9577 11.0525C2.85284 12.3503 3.56678 13.7255 4.2376 14.8077C5.10304 16.2037 4.25991 15.3509 5.30627 15.8609L18.7798 15.846C16.8563 14.0858 15.5534 14.5264 15.157 10.9035C19.5723 10.8777 16.2337 11.9102 20.0199 13.3613L20.1012 8.4088L22.4866 8.39964L22.5808 13.243C24.8545 12.8308 24.6864 11.7316 25.4363 10.8967L27.48 10.9137C27.0862 14.5447 25.8838 14.1305 23.8204 15.7155L37.8496 15.8601C38.7335 14.4887 39.942 12.5662 39.6606 11.2542L39.1144 11.0542C36.0358 10.3713 30.3636 11.7763 28.8877 10.2764C26.8775 8.23345 23.1465 3.49702 16.8857 7.16239C12.3519 9.81681 16.7014 10.9108 8.99701 10.8996C6.99899 10.8967 4.92719 10.743 2.9577 11.0525Z" fill="white"/>
<path fill-rule="evenodd" clip-rule="evenodd" d="M8.19647 8.4014C14.8551 8.4014 10.8767 8.02714 15.4775 5.09283C20.8546 1.66342 28.2788 4.15127 30.4414 8.32257L34.4324 8.36473C32.4005 2.94447 28.5129 0.943949 21.4103 0.944458C15.9455 0.94484 10.2357 1.86959 8.19647 8.4014Z" fill="white"/>
<path fill-rule="evenodd" clip-rule="evenodd" d="M20.0878 73.027C27.6105 73.0984 29.9862 73.9985 29.9862 70.6881C29.9862 67.65 29.6285 68.0531 25.1143 68.0401L24.7484 65.6848C23.0179 65.679 21.5318 66.8811 20.0954 67.5214L20.0878 73.027Z" fill="white"/>
<path fill-rule="evenodd" clip-rule="evenodd" d="M37.0673 23.5148L37.484 18.4943L36.1749 18.3323L25.7718 18.3586L24.4139 18.422C26.6169 21.4054 32.0001 23.5329 37.0673 23.5148Z" fill="white"/>
<path fill-rule="evenodd" clip-rule="evenodd" d="M5.55401 23.6238C10.2715 22.9677 12.8152 22.894 16.9713 19.7414C18.0267 18.9408 17.6039 19.4917 18.1968 18.3931L5.25378 18.3562L5.55401 23.6238Z" fill="white"/>
<path fill-rule="evenodd" clip-rule="evenodd" d="M59.6682 60.5774L60.9991 60.589L74.5031 60.5871L74.5178 58.121L59.6682 58.1225V60.5774Z" fill="white"/>
<path fill-rule="evenodd" clip-rule="evenodd" d="M18.0232 43.0566C17.5569 44.7153 18.1532 46.7539 19.0617 48.0876L23.796 48.1656C24.3535 45.936 25.2044 45.3637 24.6113 42.82C23.388 42.8175 22.7325 43.1741 21.409 43.1808C19.8908 43.1886 19.0316 42.5999 18.0232 43.0566Z" fill="white"/>
<path fill-rule="evenodd" clip-rule="evenodd" d="M44.8427 60.587H55.9668L57.2093 60.509L57.2074 58.2516L55.9693 58.0947L44.9372 58.1209L44.8427 60.587Z" fill="white"/>
<path fill-rule="evenodd" clip-rule="evenodd" d="M27.1731 55.8171L38.361 49.5714C37.4213 48.1298 35.4597 47.5695 33.7808 47.4369C31.9949 50.2236 29.0046 52.9659 27.1731 55.8171Z" fill="white"/>
<path fill-rule="evenodd" clip-rule="evenodd" d="M4.30389 49.459L15.342 55.8955C14.7243 54.5616 13.1666 52.7779 12.1886 51.6379C11.0649 50.3281 9.93875 48.7966 8.66126 47.446C6.79269 47.6579 5.13903 48.4098 4.30389 49.459Z" fill="white"/>
<path fill-rule="evenodd" clip-rule="evenodd" d="M47.299 15.7909L48.5849 15.8752L50.9395 15.861L52.2653 15.8512V10.9132L47.2987 10.9228L47.299 15.7909Z" fill="white"/>
<path fill-rule="evenodd" clip-rule="evenodd" d="M59.6682 15.8486L60.9991 15.8635L63.3529 15.861L64.6352 15.8065L64.6345 10.977L59.6683 10.893L59.6682 15.8486Z" fill="white"/>
<path fill-rule="evenodd" clip-rule="evenodd" d="M24.0236 55.2444C25.1472 54.519 26.5458 52.5065 27.5508 51.2491C28.4408 50.1356 30.4588 48.0376 30.9457 46.6621L26.9852 45.9246L24.0236 55.2444Z" fill="white"/>
<path fill-rule="evenodd" clip-rule="evenodd" d="M11.6619 46.727C12.1987 47.8074 17.3686 54.3283 18.4433 54.9846C18.0744 52.8313 16.4795 47.6099 15.3712 46.0214L11.6619 46.727Z" fill="white"/>
<path fill-rule="evenodd" clip-rule="evenodd" d="M10.2082 73.0376L12.6808 73.0269L12.6242 68.052L10.2176 68.0474L10.2082 73.0376Z" fill="white"/>
<path fill-rule="evenodd" clip-rule="evenodd" d="M47.299 8.33868L48.5852 8.41408L50.9343 8.40147L52.2653 8.39267V5.94824L47.2988 5.95601L47.299 8.33868Z" fill="white"/>
<path fill-rule="evenodd" clip-rule="evenodd" d="M59.6682 8.39033L60.9991 8.40345L63.3477 8.40129L64.6351 8.35252L64.6345 5.9999L59.6683 5.93176L59.6682 8.39033Z" fill="white"/>
<path fill-rule="evenodd" clip-rule="evenodd" d="M15.1439 73.0031L17.6211 72.938L17.5729 68.0756L15.1481 68.1315L15.1439 73.0031Z" fill="white"/>
<path fill-rule="evenodd" clip-rule="evenodd" d="M34.5641 30.7436C38.5758 30.6124 38.0523 25.9719 34.9375 25.9426L34.5641 30.7436Z" fill="white"/>
<path fill-rule="evenodd" clip-rule="evenodd" d="M8.13868 30.7778L7.61493 25.845C4.2172 26.4967 4.38405 30.3824 8.13868 30.7778Z" fill="white"/>
<path fill-rule="evenodd" clip-rule="evenodd" d="M20.0777 64.6945L22.4835 63.6313L22.564 60.5899L20.0878 60.5948L20.0777 64.6945Z" fill="white"/>
<path fill-rule="evenodd" clip-rule="evenodd" d="M21.5258 54.9294L22.8583 50.7338L19.8441 50.6524C20.0671 51.6766 20.2399 52.1266 20.5323 53.0456C20.6209 53.3244 20.7582 53.8706 20.8464 54.0496C21.3843 55.1421 21.1032 54.5073 21.5258 54.9294Z" fill="white"/>
</svg>
