<svg width="81" height="70" viewBox="0 0 81 70" fill="none" xmlns="http://www.w3.org/2000/svg">
<path fill-rule="evenodd" clip-rule="evenodd" d="M16.4917 22.3075C16.4885 27.1301 22.4661 26.005 26.1748 25.7623C32.1402 25.3719 31.5988 25.1435 36.1864 22.069C39.0752 20.1331 41.8869 18.3389 44.7794 16.4086C45.5356 15.9039 46.2002 15.4986 46.9507 14.9821C48.6258 13.8295 48.3382 14.3172 44.5642 8.60134C43.9619 7.68909 39.1713 0.229818 38.8133 0.0583476C38.3702 -0.153846 37.9082 0.266226 37.6127 0.464297L25.7735 8.28012C24.5037 9.11169 22.735 10.0305 21.6386 11.4512C20.5664 12.8405 16.4929 20.5299 16.4917 22.3075ZM30.7864 15.9103C31.3069 15.7419 31.7523 15.443 32.0736 15.0457L30.3422 13.8291L30.7864 15.9103ZM18.074 22.5611C18.5141 25.4389 22.6608 24.7357 22.2989 21.9717C21.9478 19.2897 17.6363 19.6983 18.074 22.5611ZM25.9218 19.6023C25.4659 19.9132 25.4449 19.8521 25.0999 20.2752C26.2057 22.1244 29.2518 20.623 29.366 18.8709C29.4284 17.9122 28.7561 17.0038 27.5089 17.0718C26.6364 17.1193 25.5856 17.972 24.8837 17.5271L24.8363 17.0435C24.9688 16.4879 24.8552 16.8838 25.0663 16.6647C25.2312 16.4936 25.644 16.2685 25.9116 16.2757C26.7424 16.2981 26.8452 16.9227 27.5371 15.8713C26.5092 14.2381 23.5764 15.7518 23.6602 17.4824C23.6856 18.007 24.1519 18.5862 24.6602 18.7561C25.9566 19.1896 27.4548 17.8416 28.0461 18.4185C28.5769 18.9364 27.8816 19.6742 27.5385 19.8487C26.8845 20.1813 26.5122 19.9108 25.9218 19.6023ZM35.7477 15.4785C35.8179 15.414 38.9802 13.4292 39.067 13.3907C38.9479 12.8699 38.8887 12.9105 38.6261 12.508L36.2226 14.0131C35.4157 13.2666 34.3046 11.0322 33.509 10.0656L32.5925 10.6628L35.7477 15.4785ZM39.8987 12.7721C40.854 12.0526 42.9558 10.9275 43.4436 10.3357C43.2761 9.95996 43.2136 9.86762 42.9454 9.57429L40.3663 11.296C39.8426 10.9379 39.8094 10.5783 39.4017 10.1135C39.9407 9.39475 41.0705 9.00647 41.7482 8.40153L41.2592 7.61463L38.9116 9.17455L38.1973 8.25604C38.5423 7.83438 40.2057 6.8167 40.7147 6.50447C40.5924 6.06611 40.4908 5.92222 40.1777 5.64512L36.6818 7.93148C36.8674 8.47455 39.457 12.4126 39.8987 12.7721ZM30.3126 18.9949C30.8654 18.7928 31.0058 18.6522 31.3419 18.4217L31.0375 17.0372L32.971 15.7512L34.2142 16.5874C34.6585 16.1617 34.7246 16.3142 35.0929 15.8344L30.0414 12.286L29.0249 12.9862L30.3126 18.9949Z" fill="white"/>
<path d="M50.7702 47.2252C50.7702 47.2252 50.7391 48.4596 50.7391 49.9846V50.0158H1.39703V54.5354C1.39703 54.5354 7.4693 69.4463 7.50386 69.709C9.40923 67.9801 13.5 65.3139 18.6628 68.0077C21.0039 69.2284 23.7979 69.2214 26.1252 67.9835C28.3002 66.832 31.326 66.175 34.8531 68.0077C37.1907 69.2284 39.9778 69.2214 42.3085 67.9835C44.4836 66.832 47.5162 66.175 51.0365 68.0112C53.3775 69.2353 56.1578 69.2215 58.4919 67.987C61.1062 66.6003 64.9584 65.9295 69.4226 69.4636L81 47.2286L50.7702 47.2286V47.2252Z" fill="white"/>
<path d="M18.1268 48.6222V30.4989L21.5952 27.7048L11.152 27.7048V23.0442L14.7587 23.0443V21.4155H11.152V13.7621H9.76187V21.4155H6.1552V23.0443H9.76187V27.7048L0 27.7048V30.4988L4.18414 30.4989V48.6222H18.1268ZM11.0725 32.5045H15.6094V36.6714H11.0725V32.5045ZM11.0725 39.1784H15.6094V43.3418H11.0725V39.1784Z" fill="white"/>
<path d="M49.2661 36.6711H20.5647V48.622H49.2661V36.6711Z" fill="white"/>
<path d="M79.4578 33.7874H50.7598V45.7382H79.4578V33.7874Z" fill="white"/>
<path d="M49.2695 23.2337H38.937V35.1845H49.2695V23.2337Z" fill="white"/>
<path d="M36.9797 28.4794H26.6507V35.181H36.9797V28.4794Z" fill="white"/>
<path d="M61.0889 17.4102H50.7599V24.1118H61.0889V17.4102Z" fill="white"/>
<path d="M72.7976 25.5986H50.7598V32.3037H72.7976V25.5986Z" fill="white"/>
</svg>
