<svg width="93" height="73" viewBox="0 0 93 73" fill="none" xmlns="http://www.w3.org/2000/svg">
<path d="M67.0203 53.8675C67.0203 53.8675 66.994 54.9142 66.994 56.2071V56.2335H25.3417V60.0654C25.3417 60.0654 30.4676 72.7076 30.4968 72.9304C32.1052 71.4645 35.5585 69.204 39.9166 71.488C41.8929 72.5229 44.2515 72.517 46.216 71.4674C48.0521 70.4911 50.6063 69.9341 53.5838 71.488C55.5571 72.5229 57.9099 72.517 59.8773 71.4674C61.7134 70.4911 64.2735 69.9341 67.2451 71.4909C69.2213 72.5288 71.5682 72.517 73.5386 71.4704C75.7454 70.2947 78.9973 69.7259 82.7658 72.7223L92.5389 53.8704L67.0203 53.8675Z" fill="white"/>
<path d="M39.4642 55.0521V39.6863L42.392 37.3173H33.5764V33.89H36.621V32.5091H33.5764V25.4961H32.4029V32.5091H29.3583V33.89H32.4029V37.3173H24.1624V39.6863H27.6944V55.0521H39.4642ZM33.5093 41.3867H37.3391V44.9196H33.5093V41.3867ZM33.5093 47.0452H37.3391V50.5752H33.5093V47.0452Z" fill="white"/>
<path d="M65.7505 44.9196H41.5221V55.0521H65.7505V44.9196Z" fill="white"/>
<path d="M91.237 42.4743H67.0116V52.6068H91.237V42.4743Z" fill="white"/>
<path d="M65.7535 33.5262H57.0312V43.6587H65.7535V33.5262Z" fill="white"/>
<path d="M55.379 37.9739H46.6597V43.6558H55.379V37.9739Z" fill="white"/>
<path d="M55.379 31.0284H46.6597V36.7104H55.379V31.0284Z" fill="white"/>
<path d="M75.7309 28.589H67.0116V34.2709H75.7309V28.589Z" fill="white"/>
<path d="M85.6149 35.5316H67.0116V41.2165H85.6149V35.5316Z" fill="white"/>
<path d="M35.5001 0.944458C26.159 0.944458 17.682 4.68844 11.4381 10.7398C11.2805 10.8835 10.685 11.4874 10.539 11.6399C4.51403 17.9141 0.783447 26.4282 0.783447 35.8101C0.783447 51.821 11.5957 65.3075 26.2612 69.3858L22.4255 60.0654V53.3045H24.7783V49.326C23.7303 49.4755 22.7087 49.6338 21.7424 49.8097C21.0565 45.84 20.7324 41.967 20.6741 38.267H21.1207V33.8956C21.1207 33.8722 21.1324 33.8575 21.1324 33.834L20.7149 33.8282C20.8842 29.5565 21.3746 25.6014 21.9964 22.0773C27.458 23.1767 36.5072 23.1767 36.5072 23.1767L36.621 29.5828H37.7098V23.08C41.8608 22.9158 45.6556 22.4467 48.9775 21.8603C49.3278 23.8071 49.6343 25.8975 49.8678 28.0935H54.3895C54.1267 25.575 53.791 23.1767 53.3824 20.9661C56.6371 20.2126 59.1446 19.4328 60.6713 18.905C62.0929 21.0336 63.243 23.3556 64.0866 25.8183V25.6512H68.7046C64.3639 11.3701 51.1259 0.944458 35.5001 0.944458ZM8.84595 21.3678C8.85471 21.3502 8.86054 21.3355 8.8693 21.3209C9.31884 20.4941 9.80341 19.6937 10.323 18.9167C12.7604 19.8198 15.1862 20.5557 17.5857 21.1391C16.9055 24.9271 16.3743 29.1988 16.202 33.8252H5.3051C5.59993 29.3395 6.82595 25.1147 8.84595 21.3678ZM10.3259 52.7093C7.52652 48.5109 5.75756 43.5766 5.33138 38.2611H16.1728C16.24 42.2367 16.599 46.4058 17.3638 50.704C14.2346 51.4428 11.8176 52.1933 10.3259 52.7093ZM13.2888 56.4328C14.5907 56.0341 16.2692 55.562 18.2863 55.0929C18.8467 57.415 19.5327 59.7663 20.3646 62.1294C17.7287 60.5902 15.3497 58.6639 13.2888 56.4328ZM18.4789 16.7824C16.7391 16.3602 14.9877 15.8559 13.2304 15.2549C13.461 15.0056 16.0765 11.8803 20.5252 9.397C19.8772 11.3789 19.1503 13.871 18.4789 16.7824ZM33.2903 18.6382C29.9626 18.5825 26.4655 18.2952 22.8867 17.6883C24.1069 12.3699 25.4935 8.52917 26.1357 6.88733C28.4155 6.14264 30.812 5.67648 33.2903 5.4947V18.6382ZM37.7127 18.5796V5.49763C40.191 5.67941 42.5905 6.14557 44.8703 6.89027C45.5096 8.51158 46.8728 12.2614 48.0813 17.4684C45.0134 17.9961 41.5046 18.4213 37.7127 18.5796ZM52.4775 16.583C51.8148 13.7567 51.1084 11.3408 50.4691 9.397C53.178 10.948 55.6067 12.9094 57.7055 15.1904C56.3598 15.6067 54.5996 16.0992 52.4775 16.583Z" fill="white"/>
</svg>
