<svg width="88" height="76" viewBox="0 0 88 76" fill="none" xmlns="http://www.w3.org/2000/svg">
<path d="M62.9116 23.9731C42.4694 16.0426 21.9537 7.41436 0.885376 9.80088C2.91117 19.7508 15.3606 28.0853 13.961 37.2642C13.077 41.8537 8.98856 38.2189 8.73073 45.3417H40.5173C44.0164 35.5019 53.4456 28.4158 64.5322 28.4158C73.372 28.4158 81.1805 32.9318 85.7478 39.7609L87.8473 32.4178C79.5599 30.2883 70.9042 27.0573 62.9116 23.9731ZM20.9223 25.9191C18.9702 25.9191 17.4232 24.377 17.4232 22.5045C17.4232 20.632 18.9702 19.09 20.9223 19.09C22.8376 19.09 24.4214 20.632 24.4214 22.5045C24.3846 24.377 22.8376 25.9191 20.9223 25.9191ZM27.4049 6.38632H42.8746L38.6388 10.7922C47.4418 13.4725 56.1712 16.9972 64.9005 20.3383C70.2044 22.3944 75.8398 24.4872 81.4752 26.323V21.5866L74.8822 18.5392V12.628L53.1877 0.952393H35.1397L33.2981 4.33024H26.1526L24.2004 5.8723L25.4159 6.23946L27.4049 6.38632ZM84.0903 50.5553H82.1382C81.2542 50.5553 80.2966 49.8577 80.0019 49.0133L78.8601 46.2963C78.4181 45.5253 78.6023 44.3504 79.2284 43.7262L80.6281 42.331C81.2542 41.7068 81.2542 40.6421 80.6281 40.0179L78.3076 37.7048C77.6814 37.0807 76.6133 37.0807 75.9871 37.7048L74.5875 39.1C73.9614 39.7242 72.7827 39.9078 72.0092 39.4672L69.2836 38.329C68.4365 38.072 67.7366 37.1174 67.7366 36.1995V34.2903C67.7366 33.4091 67 32.6748 66.116 32.6748H62.8379C61.9171 32.6748 61.2173 33.4091 61.2173 34.2903V36.2362C61.2173 37.1174 60.5174 38.072 59.6703 38.3657L56.9447 39.5039C56.1712 39.9445 54.9925 39.7609 54.3664 39.1367L52.9667 37.7415C52.3406 37.1174 51.2724 37.1174 50.6463 37.7415L48.3258 40.0546C47.6997 40.6788 47.6997 41.7436 48.3258 42.3677L49.7255 43.7629C50.3516 44.3871 50.5358 45.562 50.0938 46.333L48.9888 49.05C48.731 49.8944 47.7733 50.592 46.8894 50.592H44.9372C44.0532 50.592 43.3166 51.3264 43.3166 52.2075V55.4752C43.3166 56.3564 44.0532 57.0907 44.9372 57.0907H46.8894C47.7733 57.0907 48.731 57.7883 48.9888 58.6328L50.1306 61.3498C50.5726 62.1208 50.3885 63.2957 49.7623 63.9566L48.3627 65.3518C47.7365 65.9759 47.7365 67.0407 48.3627 67.6649L50.6831 69.9779C51.3093 70.6021 52.3406 70.6021 53.0036 69.9779L54.4032 68.5827C55.0294 67.9586 56.208 67.775 56.9815 68.2156L59.7071 69.3538C60.5543 69.6108 61.2541 70.5654 61.2541 71.4833V73.4292C61.2541 74.3104 61.9907 75.0447 62.8747 75.0447H66.1528C67.0368 75.0447 67.7735 74.3104 67.7735 73.4292V71.4833C67.7735 70.6021 68.4733 69.6475 69.3204 69.3538L72.0461 68.2156C72.8195 67.775 73.9982 67.9586 74.6612 68.5827L76.0608 69.9779C76.687 70.6021 77.7551 70.6021 78.3813 69.9779L80.7017 67.6649C81.3279 67.0407 81.3279 65.9759 80.7017 65.3518L79.3021 63.9566C78.6759 63.3324 78.4918 62.1575 78.9338 61.3498L80.0756 58.6328C80.3334 57.7883 81.291 57.0907 82.2119 57.0907H84.164C85.048 57.0907 85.7846 56.3564 85.7846 55.4752V52.2075C85.711 51.2896 84.9743 50.5553 84.0903 50.5553ZM64.4954 61.9372C60.0018 61.9372 56.3185 58.3023 56.3185 53.823C56.3185 49.3437 59.9649 45.6721 64.4954 45.6721C69.0258 45.6721 72.6722 49.307 72.6722 53.823C72.6722 58.3023 68.9889 61.9372 64.4954 61.9372Z" fill="white"/>
</svg>
