<svg width="74" height="74" viewBox="0 0 74 74" fill="none" xmlns="http://www.w3.org/2000/svg">
<g clip-path="url(#clip0_651_3406)">
<path d="M36.2832 30.527C36.7417 30.4248 37.2175 30.4246 37.6761 30.5268L55.876 34.5775L54.1687 23.7644C53.9906 22.6365 53.0199 21.8048 51.8779 21.8017L46.8038 21.7881L45.9732 11.5255C45.8756 10.3203 44.8707 9.39087 43.6616 9.38767L40.2078 9.37838L40.2238 3.42606C40.2286 1.65672 38.7981 0.218345 37.0286 0.213539C37.0256 0.213539 37.0229 0.213539 37.0198 0.213539C35.2545 0.213539 33.8209 1.64231 33.8161 3.40876L33.8001 9.36108L30.4379 9.3521C29.2288 9.34874 28.2189 10.2727 28.115 11.4776L27.2293 21.7357L22.2216 21.7223C21.0797 21.7192 20.1045 22.5457 19.9204 23.6726L18.1397 34.5703L36.2832 30.527Z" fill="white"/>
<path d="M17.688 60.1024C20.4757 58.0721 23.8245 56.9764 27.344 56.9764C30.8633 56.9764 34.2123 58.0723 37 60.1024C39.7876 58.0721 43.1365 56.9764 46.6559 56.9764C50.1752 56.9764 53.5238 58.0721 56.3116 60.1021C57.4958 59.239 58.7815 58.5464 60.1375 58.033L64.5691 45.762C64.7961 45.1334 64.7416 44.4376 64.4198 43.8519C64.0978 43.2662 63.5396 42.8475 62.8872 42.7022L36.9806 36.9362L11.1119 42.7009C10.4597 42.8462 9.90144 43.2651 9.57961 43.8508C9.25778 44.4364 9.20348 45.1321 9.43047 45.7606L13.8638 58.0365C15.2195 58.5492 16.5046 59.2406 17.688 60.1024Z" fill="white"/>
<path d="M73.0616 66.3176C71.1668 64.4228 68.6476 63.3793 65.9681 63.3793C63.2885 63.3793 60.7693 64.4228 58.8745 66.3176C58.19 67.0021 57.28 67.379 56.3119 67.379C55.3439 67.379 54.4338 67.0021 53.7495 66.3176C51.7937 64.362 49.2246 63.3841 46.6558 63.3841C44.0869 63.3841 41.518 64.362 39.5624 66.3176C38.8779 67.0021 37.9678 67.379 36.9998 67.379C36.0317 67.379 35.1217 67.0021 34.4373 66.3176C32.4815 64.362 29.9125 63.3841 27.3436 63.3841C24.7748 63.3841 22.2059 64.362 20.2503 66.3176C19.5438 67.0241 18.6156 67.3773 17.6878 67.3773C16.7596 67.3773 15.8318 67.0241 15.1252 66.3176C13.1695 64.362 10.6005 63.3841 8.03165 63.3841C5.46278 63.3841 2.89391 64.362 0.938271 66.3176C-0.313001 67.5689 -0.313001 69.5974 0.938271 70.8485C2.18938 72.0996 4.21792 72.0998 5.46919 70.8485C6.17564 70.1421 7.10364 69.7888 8.03181 69.7888C8.95997 69.7888 9.88781 70.1421 10.5944 70.8487C12.5501 72.8043 15.1189 73.7821 17.6878 73.7821C20.2567 73.7821 22.8257 72.8043 24.7813 70.8487C25.4878 70.1421 26.4159 69.7888 27.3439 69.7888C28.2719 69.7888 29.1999 70.1421 29.9064 70.8487C31.801 72.7433 34.3204 73.7868 36.9998 73.7868C39.6793 73.7868 42.1985 72.7433 44.0933 70.8485C44.7998 70.1421 45.7279 69.7888 46.6559 69.7888C47.5839 69.7888 48.5119 70.1421 49.2184 70.8487C51.113 72.7433 53.6324 73.7868 56.3118 73.7868C58.9913 73.7868 61.5105 72.7433 63.4053 70.8485C64.0898 70.1642 64.9999 69.7871 65.9679 69.7871C66.936 69.7871 67.846 70.1642 68.5305 70.8485C69.7818 72.0996 71.8102 72.0998 73.0614 70.8485C74.3129 69.5974 74.3129 67.5687 73.0616 66.3176Z" fill="white"/>
</g>
<defs>
<clipPath id="clip0_651_3406">
<rect width="74" height="74" fill="white"/>
</clipPath>
</defs>
</svg>
